# xmcd
#
# Track frame offsets:
#	150
#	17711
#	35270
#	50930
#	66814
#	80392
#	100590
#	117612
#	134897
#	153882
#	174789
#	193104
#	208657
#	225908
#	247799
#	265097
#	280130
#	298339
#	313339
#
# Disc length: 4353 seconds
#
# Revision: 0
# Processed by: cddbd v1.5.2PL0 Copyright (c) Steve Scherf et al.
# Submitted via: EasyCDDAExtractor 10.2.0.1
#
DISCID=1110ff13
DTITLE=Various Artist - Verano Latino 2006
DYEAR=2006
DGENRE=Latin
TTITLE0=Daddy Yanke - Lo que paso paso
TTITLE1=Ricki Martin - Que más da
TTITLE2=Don Omar - Dile
TTITLE3=Chayanne - No te preocupes por mi
TTITLE4=Miranda - El Profe
TTITLE5=La quinta estación - Algo mas
TTITLE6=Thalia - Un Alma sentenciada
TTITLE7=Axel - Que estas buscando
TTITLE8=Juanes - Para tu amor
TTITLE9=Ricardo Arjona - Acompañame a estar solo
TTITLE10=Sin banderas - Suelta mi mano
TTITLE11=Reik - Noviembre sin ti
TTITLE12=Kudai - Ya nada queda
TTITLE13=Shakira - No
TTITLE14=Luis Fonsi - Estoy perdido
TTITLE15=Bebe - Malo
TTITLE16=Luis Miguel - Misterio de amor
TTITLE17=Cristian castro - Amor eterno
TTITLE18=El canto loco - Ya nada volvera a ser lo mismo
EXTD=
EXTT0=
EXTT1=
EXTT2=
EXTT3=
EXTT4=
EXTT5=
EXTT6=
EXTT7=
EXTT8=
EXTT9=
EXTT10=
EXTT11=
EXTT12=
EXTT13=
EXTT14=
EXTT15=
EXTT16=
EXTT17=
EXTT18=
PLAYORDER=
